<!DOCTYPE svg PUBLIC "-//W3C//DTD SVG 1.1//EN" "http://www.w3.org/Graphics/SVG/1.1/DTD/svg11.dtd">
<!-- Uploaded to: SVG Repo, www.svgrepo.com, Transformed by: SVG Repo Mixer Tools -->
<svg fill="#000000" width="64px" height="64px" viewBox="0 0 32 32" style="fill-rule:evenodd;clip-rule:evenodd;stroke-linejoin:round;stroke-miterlimit:2;" version="1.1" xml:space="preserve" xmlns="http://www.w3.org/2000/svg" xmlns:serif="http://www.serif.com/" xmlns:xlink="http://www.w3.org/1999/xlink">
<g id="SVGRepo_bgCarrier" stroke-width="0"/>
<g id="SVGRepo_tracerCarrier" stroke-linecap="round" stroke-linejoin="round"/>
<g id="SVGRepo_iconCarrier"> <g id="Layer1"> <path d="M27,3c0,-0.552 -0.448,-1 -1,-1l-20,0c-0.552,0 -1,0.448 -1,1l-0,26c0,0.552 0.448,1 1,1l20,-0c0.552,-0 1,-0.448 1,-1l0,-26Zm-2,1l0,24c-0,-0 -18,-0 -18,-0c-0,-0 -0,-24 -0,-24l18,0Zm-14,22l10,-0c0.552,-0 1,-0.448 1,-1c-0,-0.552 -0.448,-1 -1,-1l-10,-0c-0.552,-0 -1,0.448 -1,1c-0,0.552 0.448,1 1,1Zm2,-3l6,0c0.552,0 1,-0.448 1,-1c0,-0.552 -0.448,-1 -1,-1l-6,0c-0.552,0 -1,0.448 -1,1c0,0.552 0.448,1 1,1Zm2.955,-3.5l0.09,-0c3.843,-0.024 6.955,-3.152 6.955,-7c0,-3.848 -3.112,-6.976 -6.955,-7l-0.09,0c-3.843,0.024 -6.955,3.152 -6.955,7c0,3.848 3.112,6.976 6.955,7Zm0.045,-5.5c0.552,0 1,0.448 1,1c0,0.552 -0.448,1 -1,1c-0.552,-0 -1,-0.448 -1,-1c0,-0.552 0.448,-1 1,-1Zm-1,-4l0,2c-0,0.552 0.448,1 1,1c0.552,0 1,-0.448 1,-1l0,-2c-0,-0.552 -0.448,-1 -1,-1c-0.552,0 -1,0.448 -1,1Z"/> </g> </g>
</svg>